Mailpile-Old.ufo
<glyph name="three" format="1">
  <advance width="1227"/>
  <unicode hex="0033"/>
  <outline>
    <contour>
      <point x="1089" y="1385" type="line"/>
      <point x="1089" y="1495" type="line"/>
      <point x="308" y="1495" type="line" smooth="yes"/>
      <point x="238" y="1495"/>
      <point x="179" y="1432"/>
      <point x="179" y="1362" type="qcurve" smooth="yes"/>
      <point x="179" y="1235" type="line"/>
      <point x="315" y="1235" type="line"/>
      <point x="315" y="1365" type="line"/>
      <point x="909" y="1365" type="line"/>
      <point x="418" y="834" type="line"/>
      <point x="458" y="725" type="line"/>
      <point x="550" y="725" type="line" smooth="yes"/>
      <point x="747" y="725"/>
      <point x="962" y="537"/>
      <point x="963" y="407" type="qcurve" smooth="yes"/>
      <point x="964" y="264"/>
      <point x="775" y="96"/>
      <point x="602" y="96" type="qcurve" smooth="yes"/>
      <point x="475" y="96"/>
      <point x="299" y="218"/>
      <point x="237" y="292" type="qcurve"/>
      <point x="137" y="194" type="line"/>
      <point x="147.174768277" y="179.724262826"/>
      <point x="380" y="-28"/>
      <point x="581" y="-30" type="qcurve" smooth="yes"/>
      <point x="844" y="-33"/>
      <point x="1083" y="228"/>
      <point x="1083" y="422" type="qcurve" smooth="yes"/>
      <point x="1083" y="605"/>
      <point x="791" y="848"/>
      <point x="587" y="847" type="qcurve"/>
    </contour>
  </outline>
</glyph>
<glyph name="five" format="1">
  <advance width="1245"/>
  <unicode hex="0035"/>
  <outline>
    <contour>
      <point x="915" y="1365" type="line"/>
      <point x="444" y="1365" type="line"/>
      <point x="373" y="893" type="line"/>
      <point x="744" y="1014"/>
      <point x="1128" y="768"/>
      <point x="1128" y="466" type="qcurve" smooth="yes"/>
      <point x="1128" y="35"/>
      <point x="275" y="-69"/>
      <point x="145" y="349" type="qcurve"/>
      <point x="263" y="405" type="line"/>
      <point x="359" y="74"/>
      <point x="1002" y="148"/>
      <point x="1002" y="436" type="qcurve" smooth="yes"/>
      <point x="1002" y="714" name="inserted"/>
      <point x="652" y="878"/>
      <point x="306" y="731" type="qcurve"/>
      <point x="222" y="792" type="line"/>
      <point x="323" y="1495" type="line"/>
      <point x="1051" y="1495" type="line"/>
      <point x="1051" y="1235" type="line"/>
      <point x="915" y="1235" type="line"/>
    </contour>
  </outline>
</glyph>
<glyph name="six" format="1">
  <advance width="1288"/>
  <unicode hex="0036"/>
  <outline>
    <contour>
      <point x="701" y="1388" type="qcurve" smooth="yes"/>
      <point x="519" y="1388"/>
      <point x="294" y="1096"/>
      <point x="292" y="780" type="qcurve"/>
      <point x="382" y="851" name="inserted"/>
      <point x="591" y="935"/>
      <point x="694" y="935" type="qcurve" smooth="yes"/>
      <point x="895.109249642" y="935.0"/>
      <point x="1163.0" y="648.969858323"/>
      <point x="1163" y="430" type="qcurve" smooth="yes"/>
      <point x="1163" y="217"/>
      <point x="899" y="-29"/>
      <point x="653" y="-29" type="qcurve" smooth="yes"/>
      <point x="410" y="-29"/>
      <point x="147" y="350"/>
      <point x="147" y="717" type="qcurve" smooth="yes"/>
      <point x="147" y="897"/>
      <point x="217" y="1178"/>
      <point x="285" y="1285" type="qcurve" smooth="yes" name="inserted"/>
      <point x="352" y="1391"/>
      <point x="551" y="1516"/>
      <point x="682" y="1516" type="qcurve" smooth="yes"/>
      <point x="897" y="1516"/>
      <point x="1124" y="1307"/>
      <point x="1143" y="1133" type="qcurve"/>
      <point x="1018" y="1103" type="line"/>
      <point x="1002" y="1256" name="inserted"/>
      <point x="837" y="1388"/>
    </contour>
    <contour>
      <point x="682" y="810" type="qcurve" smooth="yes"/>
      <point x="582" y="810" name="inserted"/>
      <point x="360" y="689"/>
      <point x="290" y="635" type="qcurve"/>
      <point x="291" y="363"/>
      <point x="496" y="90"/>
      <point x="659" y="90" type="qcurve" smooth="yes"/>
      <point x="821" y="90"/>
      <point x="1030" y="257"/>
      <point x="1030" y="432" type="qcurve" smooth="yes"/>
      <point x="1030" y="592"/>
      <point x="841" y="810"/>
    </contour>
  </outline>
</glyph>
<glyph name="eight" format="1">
  <advance width="1284"/>
  <unicode hex="0038"/>
  <outline>
    <contour>
      <point x="1091" y="1168" type="qcurve" smooth="yes"/>
      <point x="1091" y="1034"/>
      <point x="872" y="836"/>
      <point x="736" y="802" type="qcurve"/>
      <point x="896" y="742"/>
      <point x="1128" y="543"/>
      <point x="1128" y="397" type="qcurve" smooth="yes"/>
      <point x="1128" y="193"/>
      <point x="846.200770428" y="-31.0"/>
      <point x="634.0" y="-31.0" type="qcurve" smooth="yes"/>
      <point x="422.739101172" y="-31.0"/>
      <point x="130" y="188"/>
      <point x="130" y="395" type="qcurve" smooth="yes"/>
      <point x="130" y="538" name="inserted"/>
      <point x="308" y="742"/>
      <point x="440" y="810" type="qcurve"/>
      <point x="361" y="849"/>
      <point x="163.0" y="999.0"/>
      <point x="163.0" y="1135.0" type="qcurve" smooth="yes"/>
      <point x="163.0" y="1314.12622683"/>
      <point x="429.000015304" y="1516.0"/>
      <point x="634.0" y="1516.0" type="qcurve" smooth="yes"/>
      <point x="842.977126844" y="1516.0"/>
      <point x="1091" y="1336"/>
    </contour>
    <contour>
      <point x="1001" y="397" type="qcurve" smooth="yes"/>
      <point x="1001" y="507"/>
      <point x="796" y="662"/>
      <point x="559" y="752" type="qcurve"/>
      <point x="442" y="696"/>
      <point x="255" y="524"/>
      <point x="255" y="391" type="qcurve" smooth="yes"/>
      <point x="255" y="258"/>
      <point x="473" y="92"/>
      <point x="632" y="92" type="qcurve" smooth="yes"/>
      <point x="792" y="92"/>
      <point x="1001" y="249"/>
    </contour>
    <contour>
      <point x="610" y="868" type="qcurve"/>
      <point x="717" y="905"/>
      <point x="966" y="1065"/>
      <point x="966" y="1173" type="qcurve" smooth="yes"/>
      <point x="966" y="1281"/>
      <point x="784" y="1399"/>
      <point x="632" y="1399" type="qcurve" smooth="yes"/>
      <point x="483" y="1399"/>
      <point x="294" y="1261"/>
      <point x="294" y="1132" type="qcurve"/>
      <point x="316" y="1033"/>
      <point x="488" y="923"/>
    </contour>
  </outline>
</glyph>
<glyph name="question" format="1">
  <advance width="936"/>
  <unicode hex="003F"/>
  <outline>
    <contour>
      <point x="180" y="1130" type="qcurve"/>
      <point x="39" y="1130" type="line"/>
      <point x="39" y="1219"/>
      <point x="94" y="1364"/>
      <point x="146.5" y="1415.0" type="qcurve" smooth="yes" name="inserted"/>
      <point x="199" y="1466"/>
      <point x="348" y="1524"/>
      <point x="440" y="1524" type="qcurve" smooth="yes"/>
      <point x="535" y="1524"/>
      <point x="684" y="1466"/>
      <point x="735.0" y="1415.0" type="qcurve" smooth="yes" name="inserted"/>
      <point x="786" y="1364"/>
      <point x="840" y="1221"/>
      <point x="840" y="1135" type="qcurve" smooth="yes"/>
      <point x="840.0" y="1045.5" name="inserted"/>
      <point x="774.5" y="883.5"/>
      <point x="709" y="811" type="qcurve" smooth="yes"/>
      <point x="600" y="688" type="line" smooth="yes"/>
      <point x="534.5" y="613.5" name="inserted"/>
      <point x="473" y="428"/>
      <point x="473" y="338" type="qcurve"/>
      <point x="343" y="338" type="line"/>
      <point x="343" y="416"/>
      <point x="375" y="563"/>
      <point x="404" y="621" type="qcurve" smooth="yes" name="inserted"/>
      <point x="432" y="678"/>
      <point x="512" y="784"/>
      <point x="565" y="844" type="qcurve" smooth="yes"/>
      <point x="625" y="911" name="inserted"/>
      <point x="688.0" y="1056.0"/>
      <point x="688" y="1135" type="qcurve" smooth="yes"/>
      <point x="688" y="1190"/>
      <point x="653" y="1286"/>
      <point x="620.5" y="1323.0" type="qcurve" smooth="yes" name="inserted"/>
      <point x="588" y="1360"/>
      <point x="494" y="1401"/>
      <point x="434" y="1401" type="qcurve" smooth="yes"/>
      <point x="317" y="1401"/>
      <point x="180" y="1247"/>
    </contour>
    <contour>
      <point x="412" y="-16" type="qcurve" smooth="yes"/>
      <point x="369" y="-16"/>
      <point x="303" y="47"/>
      <point x="303" y="90" type="qcurve" smooth="yes"/>
      <point x="303" y="135"/>
      <point x="369" y="201"/>
      <point x="412" y="201" type="qcurve" smooth="yes"/>
      <point x="457" y="201"/>
      <point x="520" y="135"/>
      <point x="520" y="90" type="qcurve" smooth="yes"/>
      <point x="520" y="47"/>
      <point x="457" y="-16"/>
    </contour>
  </outline>
</glyph>
<glyph name="D" format="1">
  <advance width="1414"/>
  <unicode hex="0044"/>
  <outline>
    <contour>
      <point x="66" y="1495" type="line"/>
      <point x="702" y="1495" type="line" smooth="yes"/>
      <point x="1009" y="1495"/>
      <point x="1344" y="1114"/>
      <point x="1344" y="748" type="qcurve" smooth="yes"/>
      <point x="1344" y="381"/>
      <point x="1009" y="0"/>
      <point x="702" y="0" type="qcurve" smooth="yes"/>
      <point x="202" y="0" type="line"/>
      <point x="202" y="0"/>
      <point x="202" y="1358"/>
      <point x="202" y="1365" type="qcurve"/>
      <point x="66" y="1365" type="line"/>
    </contour>
    <contour>
      <point x="348" y="1365" type="line"/>
      <point x="348" y="130" type="line"/>
      <point x="710" y="130" type="line" smooth="yes"/>
      <point x="933" y="130"/>
      <point x="1204" y="438"/>
      <point x="1204" y="748" type="qcurve" smooth="yes"/>
      <point x="1204" y="1057"/>
      <point x="933" y="1365"/>
      <point x="710" y="1365" type="qcurve" smooth="yes"/>
    </contour>
  </outline>
</glyph>
<glyph name="U" format="1">
  <advance width="1460"/>
  <unicode hex="0055"/>
  <outline>
    <contour>
      <point x="1245" y="574" type="line" smooth="yes"/>
      <point x="1245" y="414"/>
      <point x="1174" y="204"/>
      <point x="1104" y="137" type="qcurve" smooth="yes" name="inserted"/>
      <point x="1034" y="69"/>
      <point x="849" y="0"/>
      <point x="728" y="0" type="qcurve" smooth="yes"/>
      <point x="611" y="0"/>
      <point x="427" y="69"/>
      <point x="356" y="137" type="qcurve" smooth="yes" name="inserted"/>
      <point x="285" y="204"/>
      <point x="215" y="412"/>
      <point x="215" y="574" type="qcurve" smooth="yes"/>
      <point x="215" y="1365" type="line"/>
      <point x="79" y="1365" type="line"/>
      <point x="79" y="1495" type="line"/>
      <point x="311" y="1495" type="line" smooth="yes"/>
      <point x="345" y="1495" name="inserted"/>
      <point x="361" y="1464"/>
      <point x="361" y="1432" type="qcurve" smooth="yes"/>
      <point x="361" y="580" type="line" smooth="yes"/>
      <point x="361" y="355" name="inserted"/>
      <point x="545" y="146"/>
      <point x="728" y="146" type="qcurve" smooth="yes"/>
      <point x="914" y="146" name="inserted"/>
      <point x="1099" y="355"/>
      <point x="1099" y="580" type="qcurve" smooth="yes"/>
      <point x="1099" y="1432" type="line" smooth="yes"/>
      <point x="1099" y="1464" name="inserted"/>
      <point x="1133" y="1495"/>
      <point x="1166" y="1495" type="qcurve" smooth="yes"/>
      <point x="1381" y="1495" type="line"/>
      <point x="1381" y="1365" type="line"/>
      <point x="1245" y="1365" type="line"/>
    </contour>
  </outline>
</glyph>
<glyph name="V" format="1">
  <advance width="1436"/>
  <unicode hex="0056"/>
  <outline>
    <contour>
      <point x="1204" y="1495" type="qcurve" smooth="yes"/>
      <point x="1397" y="1495" type="line"/>
      <point x="1397" y="1365.0" type="line"/>
      <point x="1261" y="1365.0" type="line"/>
      <point x="824" y="0" type="line"/>
      <point x="611" y="0" type="line"/>
      <point x="175" y="1365" type="line"/>
      <point x="39" y="1365" type="line"/>
      <point x="39" y="1495" type="line" smooth="yes"/>
      <point x="232" y="1495" type="line" smooth="yes"/>
      <point x="259" y="1495" name="inserted"/>
      <point x="294" y="1469"/>
      <point x="302" y="1442" type="qcurve" smooth="yes"/>
      <point x="714" y="146" type="line"/>
      <point x="722" y="146" type="line"/>
      <point x="1134" y="1442" type="line" smooth="yes"/>
      <point x="1143" y="1469" name="inserted"/>
      <point x="1177" y="1495"/>
    </contour>
  </outline>
</glyph>
<glyph name="bracketright" format="1">
  <advance width="608"/>
  <unicode hex="005D"/>
  <outline>
    <contour>
      <point x="296" y="1495" type="line"/>
      <point x="48" y="1495" type="line"/>
      <point x="48" y="1625" type="line"/>
      <point x="434" y="1625" type="line"/>
      <point x="434" y="-130" type="line"/>
      <point x="48" y="-130" type="line"/>
      <point x="48" y="0" type="line"/>
      <point x="296" y="0" type="line"/>
    </contour>
  </outline>
</glyph>
<glyph name="asciicircum" format="1">
  <advance width="1196"/>
  <unicode hex="005E"/>
  <outline>
    <contour>
      <point x="1000" y="876" type="line"/>
      <point x="862" y="876" type="line"/>
      <point x="605" y="1391" type="line"/>
      <point x="338" y="876" type="line"/>
      <point x="200" y="876" type="line"/>
      <point x="504" y="1495" type="line"/>
      <point x="691" y="1495" type="line"/>
    </contour>
  </outline>
</glyph>
<glyph name="f" format="1">
  <advance width="762"/>
  <unicode hex="0066"/>
  <outline>
    <contour>
      <point x="414" y="0" type="qcurve"/>
      <point x="280" y="0" type="line"/>
      <point x="280" y="0"/>
      <point x="280" y="948"/>
      <point x="280" y="948" type="qcurve"/>
      <point x="78" y="948" type="line"/>
      <point x="78" y="1084" type="line"/>
      <point x="279" y="1084" type="line"/>
      <point x="279" y="1299"/>
      <point x="402" y="1495"/>
      <point x="609" y="1495" type="qcurve"/>
      <point x="684" y="1495" type="line"/>
      <point x="684" y="1358" type="line"/>
      <point x="602" y="1358" type="line"/>
      <point x="522" y="1358" name="inserted"/>
      <point x="414" y="1279"/>
      <point x="414" y="1084" type="qcurve"/>
      <point x="671" y="1084" type="line"/>
      <point x="671" y="948" type="line"/>
      <point x="414" y="948" type="line"/>
      <point x="414" y="948"/>
      <point x="414" y="0"/>
    </contour>
  </outline>
</glyph>
<glyph name="g" format="1">
  <advance width="1268"/>
  <unicode hex="0067"/>
  <note>
    ### RoboToDo ###
    
    ### TODO:
    Make Overshot &amp; Underhang match
    ###
    
    #####
  </note>
  <outline>
    <contour>
      <point x="997" y="1084" type="qcurve"/>
      <point x="979.0" y="1084.0"/>
      <point x="956.0" y="1065.0"/>
      <point x="956" y="1049" type="qcurve" smooth="yes"/>
      <point x="956" y="973" type="line"/>
      <point x="928" y="999"/>
      <point x="855" y="1047"/>
      <point x="810" y="1069" type="qcurve" smooth="yes"/>
      <point x="764" y="1091"/>
      <point x="653" y="1113"/>
      <point x="589" y="1113" type="qcurve" smooth="yes"/>
      <point x="466" y="1113"/>
      <point x="272" y="1029"/>
      <point x="203" y="946" type="qcurve" smooth="yes"/>
      <point x="134" y="862"/>
      <point x="65" y="670"/>
      <point x="66" y="563" type="qcurve" smooth="yes"/>
      <point x="66" y="432"/>
      <point x="147" y="225"/>
      <point x="227" y="150" type="qcurve" smooth="yes"/>
      <point x="307" y="75"/>
      <point x="486" y="0"/>
      <point x="585" y="0" type="qcurve" smooth="yes"/>
      <point x="649" y="0"/>
      <point x="761" y="19"/>
      <point x="807" y="38" type="qcurve" smooth="yes"/>
      <point x="853" y="57"/>
      <point x="931" y="109"/>
      <point x="962" y="141" type="qcurve"/>
      <point x="962" y="-161" type="line"/>
      <point x="947" y="-205"/>
      <point x="869" y="-282"/>
      <point x="808" y="-315" type="qcurve" smooth="yes"/>
      <point x="746" y="-348"/>
      <point x="563" y="-359"/>
      <point x="444" y="-337" type="qcurve" smooth="yes"/>
      <point x="420" y="-332"/>
      <point x="362" y="-315"/>
      <point x="328" y="-303" type="qcurve" smooth="yes"/>
      <point x="294" y="-290"/>
      <point x="238" y="-268"/>
      <point x="218" y="-258" type="qcurve"/>
      <point x="166" y="-390" type="line"/>
      <point x="189" y="-399"/>
      <point x="251" y="-423"/>
      <point x="289" y="-436" type="qcurve" smooth="yes"/>
      <point x="326" y="-450"/>
      <point x="393" y="-468"/>
      <point x="421" y="-473" type="qcurve" smooth="yes"/>
      <point x="560" y="-495"/>
      <point x="776" y="-482"/>
      <point x="850" y="-448" type="qcurve" smooth="yes"/>
      <point x="924" y="-414"/>
      <point x="1030" y="-332"/>
      <point x="1060" y="-285" type="qcurve" smooth="yes"/>
      <point x="1064" y="-276"/>
      <point x="1073" y="-259"/>
      <point x="1077" y="-250" type="qcurve" smooth="yes"/>
      <point x="1081" y="-241"/>
      <point x="1087" y="-222"/>
      <point x="1089" y="-213" type="qcurve"/>
      <point x="1089" y="891" type="line"/>
      <point x="1089" y="891" type="line"/>
      <point x="1089.0" y="921.0"/>
      <point x="1104.0" y="960.0"/>
      <point x="1132" y="960" type="qcurve"/>
      <point x="1133.5787728" y="960.0"/>
      <point x="1200.12247586" y="960.0"/>
      <point x="1202" y="960" type="qcurve"/>
      <point x="1202" y="1084" type="line"/>
      <point x="1202" y="1084"/>
      <point x="1150" y="1084"/>
      <point x="1099" y="1084" type="qcurve" smooth="yes"/>
      <point x="1048" y="1084"/>
      <point x="997" y="1084"/>
    </contour>
    <contour>
      <point x="951" y="470" type="line"/>
      <point x="951" y="355"/>
      <point x="890" y="226"/>
      <point x="831" y="191" type="qcurve" smooth="yes"/>
      <point x="771" y="156"/>
      <point x="647" y="120"/>
      <point x="584" y="120" type="qcurve" smooth="yes"/>
      <point x="526" y="120"/>
      <point x="401" y="174"/>
      <point x="336" y="227" type="qcurve" smooth="yes"/>
      <point x="270" y="280"/>
      <point x="204" y="449"/>
      <point x="204" y="563" type="qcurve" smooth="yes"/>
      <point x="204" y="647"/>
      <point x="258" y="797"/>
      <point x="313" y="862" type="qcurve" smooth="yes"/>
      <point x="367" y="927"/>
      <point x="503" y="992"/>
      <point x="584" y="992" type="qcurve" smooth="yes"/>
      <point x="666" y="992"/>
      <point x="795" y="943"/>
      <point x="852" y="899" type="qcurve" smooth="yes"/>
      <point x="874" y="882"/>
      <point x="951" y="804"/>
      <point x="951" y="738" type="qcurve"/>
    </contour>
  </outline>
</glyph>
<glyph name="k" format="1">
  <advance width="1153"/>
  <unicode hex="006B"/>
  <outline>
    <contour>
      <point x="895" y="177" type="line" smooth="yes"/>
      <point x="918" y="147"/>
      <point x="966" y="126"/>
      <point x="993" y="124" type="qcurve"/>
      <point x="1083" y="124" type="line"/>
      <point x="1083" y="0" type="line"/>
      <point x="946" y="0" type="line"/>
      <point x="892" y="0" name="inserted"/>
      <point x="839" y="46"/>
      <point x="810" y="89" type="qcurve" smooth="yes"/>
      <point x="499" y="491" type="line"/>
      <point x="394" y="491" type="line"/>
      <point x="394" y="491"/>
      <point x="394" y="0"/>
      <point x="394" y="0" type="qcurve"/>
      <point x="256" y="0" type="line"/>
      <point x="256" y="0"/>
      <point x="256" y="1371"/>
      <point x="256" y="1371" type="qcurve"/>
      <point x="126" y="1371" type="line"/>
      <point x="126" y="1495" type="line"/>
      <point x="330" y="1495" type="line" smooth="yes"/>
      <point x="362" y="1495" name="inserted"/>
      <point x="394" y="1463"/>
      <point x="394" y="1431" type="qcurve"/>
      <point x="394" y="621" type="line"/>
      <point x="504" y="621" type="line"/>
      <point x="933" y="1084" type="line" smooth="yes"/>
      <point x="1105" y="1084" type="line"/>
      <point x="1105" y="1084"/>
      <point x="613" y="556"/>
      <point x="613" y="556" type="qcurve"/>
    </contour>
  </outline>
</glyph>
<glyph name="l" format="1">
  <advance width="556"/>
  <unicode hex="006C"/>
  <note>
    ### RoboToDo ###
    
    ### TODO:
    Make Underhang -10, -6, or -4 and hieght of serif match "l, i, j, t"
    ###
    
    #####
  </note>
  <outline>
    <contour>
      <point x="190" y="210" type="qcurve"/>
      <point x="190" y="1371" type="line"/>
      <point x="60" y="1371" type="line"/>
      <point x="60" y="1495" type="line"/>
      <point x="267" y="1495" type="line" smooth="yes"/>
      <point x="298" y="1495" name="inserted"/>
      <point x="328" y="1463"/>
      <point x="328" y="1431" type="qcurve"/>
      <point x="328" y="210" type="line"/>
      <point x="328" y="153" name="inserted"/>
      <point x="372" y="124"/>
      <point x="416" y="124" type="qcurve"/>
      <point x="506" y="124" type="line"/>
      <point x="506" y="0" type="line"/>
      <point x="354" y="0" type="line"/>
      <point x="264" y="0" name="inserted"/>
      <point x="190" y="84"/>
    </contour>
  </outline>
</glyph>
<glyph name="o" format="1">
  <advance width="1251"/>
  <unicode hex="006F"/>
  <note>
    ### RoboToDo ###
    
    ### TODO:
    Make Overshot &amp; Underhang match
    ###
    
    ### TODO:
    Modify height / width to compensate for optical illusion
    ###
    
    #####
  </note>
  <outline>
    <contour>
      <point x="1069" y="372"/>
      <point x="800" y="104"/>
      <point x="626" y="104" type="qcurve" smooth="yes"/>
      <point x="452" y="104"/>
      <point x="182" y="372"/>
      <point x="182" y="548" type="qcurve" smooth="yes"/>
      <point x="182" y="722"/>
      <point x="452" y="991"/>
      <point x="626" y="991" type="qcurve" smooth="yes"/>
      <point x="800" y="991"/>
      <point x="1069" y="722"/>
      <point x="1069" y="548" type="qcurve" smooth="yes"/>
    </contour>
    <contour>
      <point x="626" y="1115" type="qcurve" smooth="yes"/>
      <point x="392" y="1115"/>
      <point x="58" y="781"/>
      <point x="58" y="547" type="qcurve" smooth="yes"/>
      <point x="58" y="314"/>
      <point x="392" y="-20"/>
      <point x="626" y="-20" type="qcurve" smooth="yes"/>
      <point x="860" y="-20"/>
      <point x="1193" y="314"/>
      <point x="1193" y="547" type="qcurve" smooth="yes"/>
      <point x="1193" y="781"/>
      <point x="860" y="1115"/>
    </contour>
  </outline>
</glyph>
<glyph name="q" format="1">
  <advance width="1263"/>
  <unicode hex="0071"/>
  <note>
    ### RoboToDo ###
    
    ### TODO:
    Make Overshot &amp; Underhang match
    ###
    
    #####
  </note>
  <outline>
    <contour>
      <point x="781" y="163" type="qcurve" smooth="yes"/>
      <point x="835" y="184"/>
      <point x="936" y="258"/>
      <point x="978" y="307" type="qcurve"/>
      <point x="978" y="700" type="line" smooth="yes"/>
      <point x="978" y="758"/>
      <point x="912" y="878"/>
      <point x="859" y="924" type="qcurve" smooth="yes"/>
      <point x="768" y="1003"/>
      <point x="440" y="1001"/>
      <point x="326" y="881" type="qcurve" smooth="yes"/>
      <point x="277" y="830"/>
      <point x="213" y="669"/>
      <point x="210" y="540" type="qcurve"/>
      <point x="218" y="368"/>
      <point x="348" y="197"/>
      <point x="412" y="169" type="qcurve" smooth="yes"/>
      <point x="531" y="116"/>
      <point x="725" y="142"/>
    </contour>
    <contour>
      <point x="978" y="-267" type="qcurve"/>
      <point x="978" y="153" type="line"/>
      <point x="941" y="111"/>
      <point x="843" y="56"/>
      <point x="787" y="34" type="qcurve" smooth="yes"/>
      <point x="710" y="6"/>
      <point x="446" y="1"/>
      <point x="328" y="68" type="qcurve" smooth="yes"/>
      <point x="223" y="127"/>
      <point x="78" y="365"/>
      <point x="78" y="544" type="qcurve" smooth="yes"/>
      <point x="78" y="667"/>
      <point x="146" y="873"/>
      <point x="213" y="954" type="qcurve" smooth="yes"/>
      <point x="310" y="1073"/>
      <point x="672" y="1139"/>
      <point x="834" y="1077" type="qcurve" smooth="yes"/>
      <point x="885" y="1057"/>
      <point x="969" y="989"/>
      <point x="999" y="940" type="qcurve"/>
      <point x="999" y="1084" type="line"/>
      <point x="1116" y="1084" type="line"/>
      <point x="1116" y="-267" type="line"/>
      <point x="1116" y="-324" name="inserted"/>
      <point x="1160" y="-353"/>
      <point x="1204" y="-353" type="qcurve"/>
      <point x="1294" y="-353" type="line"/>
      <point x="1294" y="-477" type="line"/>
      <point x="1142" y="-477" type="line"/>
      <point x="1052" y="-477" name="inserted"/>
      <point x="978" y="-393"/>
    </contour>
  </outline>
</glyph>
<glyph name="r" format="1">
  <advance width="904"/>
  <unicode hex="0072"/>
  <note>
    ### RoboToDo ###
    
    ### TODO:
    Make Overshot match
    ###
    
    #####
  </note>
  <outline>
    <contour>
      <point x="879" y="1084" type="qcurve"/>
      <point x="879" y="960" type="line"/>
      <point x="731" y="960"/>
      <point x="576" y="881"/>
      <point x="529" y="838" type="qcurve" smooth="yes" name="inserted"/>
      <point x="458" y="774"/>
      <point x="383" y="643"/>
      <point x="383" y="537" type="qcurve"/>
      <point x="383" y="0" type="line"/>
      <point x="245" y="0" type="line"/>
      <point x="245" y="960" type="line"/>
      <point x="115" y="960" type="line" smooth="yes"/>
      <point x="115" y="1084" type="line"/>
      <point x="294" y="1084" type="line" smooth="yes"/>
      <point x="326" y="1084" name="inserted"/>
      <point x="358" y="1053"/>
      <point x="358" y="1021" type="qcurve" smooth="yes"/>
      <point x="358" y="821" type="line"/>
      <point x="384" y="875"/>
      <point x="488" y="975"/>
      <point x="533" y="1002" type="qcurve" smooth="yes" name="inserted"/>
      <point x="580" y="1030"/>
      <point x="764" y="1084"/>
    </contour>
  </outline>
</glyph>
<glyph name="u" format="1">
  <advance width="1304"/>
  <unicode hex="0075"/>
  <note>
    ### RoboToDo ###
    
    ### TODO:
    Make Underhang match
    ###
    
    #####
  </note>
  <outline>
    <contour>
      <point x="1095" y="1084" type="line"/>
      <point x="1095" y="210" type="line" smooth="yes"/>
      <point x="1095" y="153"/>
      <point x="1143" y="124"/>
      <point x="1188" y="124" type="qcurve" smooth="yes"/>
      <point x="1259" y="124" type="line"/>
      <point x="1259" y="0" type="line"/>
      <point x="1133" y="0" type="line" smooth="yes"/>
      <point x="1046.0" y="0.0"/>
      <point x="991" y="79"/>
      <point x="991" y="210" type="qcurve"/>
      <point x="967" y="94"/>
      <point x="746" y="-30"/>
      <point x="594" y="-30" type="qcurve" smooth="yes"/>
      <point x="394" y="-30"/>
      <point x="190" y="148"/>
      <point x="190" y="337" type="qcurve" smooth="yes"/>
      <point x="190" y="960" type="line"/>
      <point x="60" y="960" type="line"/>
      <point x="60" y="1084" type="line"/>
      <point x="257" y="1084" type="line" smooth="yes"/>
      <point x="291" y="1084"/>
      <point x="328" y="1053"/>
      <point x="328" y="1021" type="qcurve" smooth="yes"/>
      <point x="328" y="339" type="line" smooth="yes"/>
      <point x="328" y="212"/>
      <point x="460" y="112"/>
      <point x="592" y="110" type="qcurve" smooth="yes"/>
      <point x="644" y="109"/>
      <point x="769" y="143"/>
      <point x="831" y="185" type="qcurve" smooth="yes"/>
      <point x="894" y="227"/>
      <point x="957" y="476"/>
      <point x="957" y="586" type="qcurve" smooth="yes"/>
      <point x="957" y="1084" type="line"/>
    </contour>
  </outline>
</glyph>
<glyph name="w" format="1">
  <advance width="1688"/>
  <unicode hex="0077"/>
  <outline>
    <contour>
      <point x="1499" y="1084" type="line" smooth="yes"/>
      <point x="1467" y="1084"/>
      <point x="1431" y="1056"/>
      <point x="1423" y="1031" type="qcurve" smooth="yes"/>
      <point x="1176" y="172" type="line"/>
      <point x="934" y="1084" type="line"/>
      <point x="755" y="1084" type="line"/>
      <point x="513" y="172" type="line"/>
      <point x="267" y="1031" type="line"/>
      <point x="257" y="1057"/>
      <point x="219" y="1084"/>
      <point x="191" y="1084" type="qcurve" smooth="yes"/>
      <point x="39" y="1084" type="line"/>
      <point x="39" y="960" type="line"/>
      <point x="142" y="960" type="line"/>
      <point x="430" y="0" type="line"/>
      <point x="612" y="0" type="line"/>
      <point x="846" y="930" type="line"/>
      <point x="1079" y="0" type="line"/>
      <point x="1258" y="0" type="line"/>
      <point x="1544" y="960" type="line"/>
      <point x="1649" y="960" type="line"/>
      <point x="1649" y="1084" type="line"/>
    </contour>
  </outline>
</glyph>
<glyph name="sterling" format="1">
  <advance width="1255"/>
  <unicode hex="00A3"/>
  <outline>
    <contour>
      <point x="1021" y="130" type="line"/>
      <point x="1021" y="260" type="line"/>
      <point x="1157" y="260" type="line"/>
      <point x="1157" y="0" type="line"/>
      <point x="164" y="0" type="line"/>
      <point x="164" y="94" type="line"/>
      <point x="216" y="137" name="inserted"/>
      <point x="268" y="248"/>
      <point x="268" y="315" type="qcurve" smooth="yes"/>
      <point x="268" y="647" type="line"/>
      <point x="80" y="647" type="line"/>
      <point x="80" y="773" type="line"/>
      <point x="268" y="773" type="line"/>
      <point x="268" y="1063" type="line" smooth="yes"/>
      <point x="268" y="1288"/>
      <point x="469" y="1524"/>
      <point x="700" y="1524" type="qcurve" smooth="yes"/>
      <point x="881" y="1524" name="inserted"/>
      <point x="1102" y="1339"/>
      <point x="1143" y="1153" type="qcurve"/>
      <point x="1008" y="1119" type="line"/>
      <point x="973" y="1260" name="inserted"/>
      <point x="812" y="1400"/>
      <point x="698" y="1400" type="qcurve" smooth="yes"/>
      <point x="551" y="1400"/>
      <point x="412" y="1229"/>
      <point x="412" y="1063" type="qcurve" smooth="yes"/>
      <point x="412" y="773" type="line"/>
      <point x="822" y="773" type="line"/>
      <point x="822" y="647" type="line"/>
      <point x="412" y="647" type="line"/>
      <point x="412" y="336" type="line" smooth="yes"/>
      <point x="412" y="252"/>
      <point x="397" y="177"/>
      <point x="350" y="130" type="qcurve"/>
    </contour>
  </outline>
</glyph>
<glyph name="degree" format="1">
  <advance width="895"/>
  <unicode hex="00B0"/>
  <outline>
    <contour>
      <point x="78" y="1124" type="qcurve" smooth="yes"/>
      <point x="78" y="1315"/>
      <point x="264" y="1518"/>
      <point x="438" y="1518" type="qcurve" smooth="yes"/>
      <point x="612" y="1518"/>
      <point x="817" y="1300"/>
      <point x="817" y="1110" type="qcurve" smooth="yes"/>
      <point x="817" y="924"/>
      <point x="627" y="719"/>
      <point x="453" y="719" type="qcurve" smooth="yes"/>
      <point x="367" y="719"/>
      <point x="227" y="776"/>
      <point x="179.0" y="828.5" type="qcurve" smooth="yes" name="inserted"/>
      <point x="131" y="881"/>
      <point x="78" y="1032"/>
    </contour>
    <contour>
      <point x="446" y="821" type="qcurve" smooth="yes"/>
      <point x="564.0" y="821.0" name="inserted"/>
      <point x="682.0" y="969.5"/>
      <point x="682" y="1118" type="qcurve" smooth="yes"/>
      <point x="682" y="1247"/>
      <point x="553" y="1415"/>
      <point x="442" y="1415" type="qcurve" smooth="yes"/>
      <point x="332" y="1415"/>
      <point x="211" y="1262"/>
      <point x="211" y="1122" type="qcurve" smooth="yes"/>
      <point x="211" y="981"/>
      <point x="342" y="821"/>
    </contour>
  </outline>
</glyph>
<glyph name="periodcentered" format="1">
  <advance width="537"/>
  <unicode hex="00B7"/>
  <outline>
    <contour>
      <point x="188" y="551" type="qcurve" smooth="yes"/>
      <point x="172.0" y="567.5" name="inserted"/>
      <point x="156.0" y="607.5"/>
      <point x="156" y="631" type="qcurve" smooth="yes"/>
      <point x="156" y="678"/>
      <point x="227" y="743"/>
      <point x="268" y="743" type="qcurve" smooth="yes"/>
      <point x="311" y="743"/>
      <point x="381" y="674"/>
      <point x="381" y="631" type="qcurve" smooth="yes"/>
      <point x="381" y="590"/>
      <point x="315" y="518"/>
      <point x="266" y="518" type="qcurve" smooth="yes"/>
      <point x="242.5" y="518.0" name="inserted"/>
      <point x="203.5" y="534.5"/>
    </contour>
  </outline>
</glyph>
<glyph name="uni00B9" format="1">
  <advance width="659"/>
  <unicode hex="00B9"/>
  <outline>
    <contour>
      <point x="414" y="731" type="line"/>
      <point x="281" y="731" type="line"/>
      <point x="281" y="1403" type="line"/>
      <point x="98" y="1364" type="line"/>
      <point x="88" y="1458" type="line"/>
      <point x="309" y="1524" type="line"/>
      <point x="414" y="1524" type="line"/>
    </contour>
  </outline>
</glyph>
<glyph name="germandbls" format="1">
  <advance width="1368"/>
  <unicode hex="00DF"/>
  <outline>
    <contour>
      <point x="410" y="839" type="line"/>
      <point x="721" y="839" type="line" smooth="yes"/>
      <point x="858" y="839"/>
      <point x="1012" y="969"/>
      <point x="1012" y="1110" type="qcurve" smooth="yes"/>
      <point x="1012" y="1251"/>
      <point x="854" y="1401"/>
      <point x="713" y="1401" type="qcurve" smooth="yes"/>
      <point x="562" y="1401" name="inserted"/>
      <point x="410" y="1197"/>
      <point x="410" y="993" type="qcurve" smooth="yes"/>
    </contour>
    <contour>
      <point x="410" y="691" type="line"/>
      <point x="410" y="63" type="line" smooth="yes"/>
      <point x="410" y="32" name="inserted"/>
      <point x="375" y="0"/>
      <point x="340" y="0" type="qcurve" smooth="yes"/>
      <point x="117" y="0" type="line"/>
      <point x="117" y="119" type="line"/>
      <point x="246" y="121" type="line"/>
      <point x="246" y="991" type="line" smooth="yes"/>
      <point x="246" y="1257"/>
      <point x="494" y="1526"/>
      <point x="709" y="1526" type="qcurve" smooth="yes"/>
      <point x="926" y="1526"/>
      <point x="1169" y="1309"/>
      <point x="1169" y="1122" type="qcurve" smooth="yes"/>
      <point x="1169" y="997"/>
      <point x="1090" y="816"/>
      <point x="966" y="783" type="qcurve"/>
      <point x="1107" y="775"/>
      <point x="1290" y="561"/>
      <point x="1290" y="373" type="qcurve" smooth="yes"/>
      <point x="1290" y="186"/>
      <point x="1083" y="-40"/>
      <point x="881" y="-29" type="qcurve" smooth="yes"/>
      <point x="715" y="-20"/>
      <point x="644" y="10"/>
      <point x="573" y="67" type="qcurve"/>
      <point x="654" y="188" type="line"/>
      <point x="747" y="116"/>
      <point x="777" y="100"/>
      <point x="892" y="100" type="qcurve" smooth="yes"/>
      <point x="1004" y="100"/>
      <point x="1128" y="248"/>
      <point x="1128" y="389" type="qcurve" smooth="yes"/>
      <point x="1128" y="532"/>
      <point x="956" y="691"/>
      <point x="782" y="691" type="qcurve" smooth="yes"/>
    </contour>
  </outline>
</glyph>
<glyph name="eth" format="1">
  <advance width="1420"/>
  <unicode hex="00F0"/>
  <outline>
    <contour>
      <point x="1265.0" y="586.0" type="qcurve" smooth="yes"/>
      <point x="1256.0" y="287.0"/>
      <point x="947.0" y="-29.0"/>
      <point x="705.0" y="-29.0" type="qcurve" smooth="yes"/>
      <point x="586.0" y="-29.0"/>
      <point x="334.0" y="59.0"/>
      <point x="266.5" y="140.0" type="qcurve" smooth="yes" name="inserted"/>
      <point x="199.0" y="221.0"/>
      <point x="127.0" y="399.0"/>
      <point x="127.0" y="540.0" type="qcurve" smooth="yes"/>
      <point x="127.0" y="822.0"/>
      <point x="445.0" y="1132.0"/>
      <point x="694.0" y="1137.0" type="qcurve" smooth="yes"/>
      <point x="740.0" y="1138.0" name="inserted"/>
      <point x="873.0" y="1129.0"/>
      <point x="972.0" y="1079.0" type="qcurve"/>
      <point x="910.0" y="1170.0" name="inserted"/>
      <point x="834.0" y="1263.0"/>
      <point x="770.0" y="1343.0" type="qcurve"/>
      <point x="600.0" y="1247.0" type="line"/>
      <point x="528.0" y="1335.0" type="line"/>
      <point x="694.0" y="1432.0" type="line"/>
      <point x="670.0" y="1463.0" name="inserted"/>
      <point x="590.0" y="1545.0"/>
      <point x="560.0" y="1575.0" type="qcurve"/>
      <point x="669.0" y="1658.0" type="line"/>
      <point x="708.0" y="1619.0" name="inserted"/>
      <point x="776.0" y="1560.0"/>
      <point x="810.0" y="1517.0" type="qcurve"/>
      <point x="968.0" y="1611.0" type="line"/>
      <point x="1044" y="1515" type="line"/>
      <point x="892.0" y="1421.0" type="line"/>
      <point x="1077.0" y="1189.0" name="inserted"/>
      <point x="1273.0" y="856.0"/>
    </contour>
    <contour>
      <point x="1113.0" y="571.0" type="qcurve" smooth="yes"/>
      <point x="1113.0" y="799.0"/>
      <point x="853.0" y="998.0"/>
      <point x="687.0" y="998.0" type="qcurve" smooth="yes"/>
      <point x="525.0" y="998.0"/>
      <point x="287.0" y="761.0"/>
      <point x="287.0" y="538.0" type="qcurve" smooth="yes"/>
      <point x="287.0" y="427.0"/>
      <point x="338.0" y="295.0"/>
      <point x="384.0" y="230.5" type="qcurve" smooth="yes" name="inserted"/>
      <point x="430.0" y="166.0"/>
      <point x="621.0" y="96.0"/>
      <point x="703.0" y="96.0" type="qcurve" smooth="yes"/>
      <point x="865.0" y="96.0"/>
      <point x="1113.0" y="344.0"/>
    </contour>
  </outline>
</glyph>
<glyph name="oslash" format="1">
  <advance width="1482"/>
  <unicode hex="00F8"/>
  <outline>
    <contour>
      <point x="1353" y="672" type="qcurve" smooth="yes"/>
      <point x="1351" y="687"/>
      <point x="1346" y="718"/>
      <point x="1344" y="733" type="qcurve" smooth="yes"/>
      <point x="1341" y="747"/>
      <point x="1333" y="777"/>
      <point x="1328" y="792" type="qcurve" smooth="yes"/>
      <point x="1323" y="807"/>
      <point x="1313" y="835"/>
      <point x="1308" y="849" type="qcurve" smooth="yes"/>
      <point x="1302" y="862"/>
      <point x="1288" y="890"/>
      <point x="1282" y="903" type="qcurve" smooth="yes"/>
      <point x="1275" y="915"/>
      <point x="1259" y="941"/>
      <point x="1251" y="954" type="qcurve" smooth="yes"/>
      <point x="1242" y="966"/>
      <point x="1224" y="990"/>
      <point x="1215" y="1002" type="qcurve" smooth="yes"/>
      <point x="1205" y="1013"/>
      <point x="1185" y="1035"/>
      <point x="1176" y="1045" type="qcurve" smooth="yes"/>
      <point x="1165" y="1055"/>
      <point x="1143" y="1075"/>
      <point x="1132" y="1085" type="qcurve" smooth="yes"/>
      <point x="1131" y="1085"/>
      <point x="1129" y="1087"/>
      <point x="1128" y="1087" type="qcurve"/>
      <point x="1225" y="1228" type="line"/>
      <point x="1112" y="1305" type="line"/>
      <point x="1013" y="1162" type="line"/>
      <point x="1005" y="1166"/>
      <point x="988" y="1173"/>
      <point x="980" y="1177" type="qcurve" smooth="yes"/>
      <point x="966" y="1182"/>
      <point x="937" y="1193"/>
      <point x="922" y="1198" type="qcurve" smooth="yes"/>
      <point x="907" y="1203"/>
      <point x="877" y="1210"/>
      <point x="863" y="1213" type="qcurve" smooth="yes"/>
      <point x="848" y="1215"/>
      <point x="817" y="1220"/>
      <point x="802" y="1222" type="qcurve" smooth="yes"/>
      <point x="786" y="1223"/>
      <point x="755" y="1225"/>
      <point x="741" y="1225" type="qcurve" smooth="yes"/>
      <point x="725" y="1225"/>
      <point x="693" y="1223"/>
      <point x="678" y="1222" type="qcurve" smooth="yes"/>
      <point x="662" y="1220"/>
      <point x="631" y="1215"/>
      <point x="617" y="1213" type="qcurve" smooth="yes"/>
      <point x="602" y="1210"/>
      <point x="572" y="1203"/>
      <point x="557" y="1198" type="qcurve" smooth="yes"/>
      <point x="542" y="1193"/>
      <point x="514" y="1182"/>
      <point x="501" y="1177" type="qcurve" smooth="yes"/>
      <point x="487" y="1171"/>
      <point x="459" y="1158"/>
      <point x="447" y="1152" type="qcurve" smooth="yes"/>
      <point x="434" y="1145"/>
      <point x="408" y="1129"/>
      <point x="396" y="1121" type="qcurve" smooth="yes"/>
      <point x="383" y="1112"/>
      <point x="359" y="1094"/>
      <point x="348" y="1085" type="qcurve" smooth="yes"/>
      <point x="336" y="1075"/>
      <point x="314" y="1055"/>
      <point x="305" y="1045" type="qcurve" smooth="yes"/>
      <point x="294" y="1035"/>
      <point x="274" y="1013"/>
      <point x="265" y="1002" type="qcurve" smooth="yes"/>
      <point x="255" y="990"/>
      <point x="237" y="966"/>
      <point x="229" y="954" type="qcurve" smooth="yes"/>
      <point x="220" y="941"/>
      <point x="204" y="915"/>
      <point x="198" y="903" type="qcurve" smooth="yes"/>
      <point x="191" y="890"/>
      <point x="178" y="862"/>
      <point x="173" y="849" type="qcurve" smooth="yes"/>
      <point x="167" y="835"/>
      <point x="156" y="807"/>
      <point x="151" y="792" type="qcurve" smooth="yes"/>
      <point x="146" y="777"/>
      <point x="139" y="747"/>
      <point x="137" y="733" type="qcurve" smooth="yes"/>
      <point x="134" y="718"/>
      <point x="129" y="687"/>
      <point x="128" y="672" type="qcurve" smooth="yes"/>
      <point x="126" y="656"/>
      <point x="125" y="624"/>
      <point x="125" y="609" type="qcurve" smooth="yes"/>
      <point x="125" y="594"/>
      <point x="126" y="563"/>
      <point x="128" y="548" type="qcurve" smooth="yes"/>
      <point x="129" y="532"/>
      <point x="134" y="501"/>
      <point x="137" y="487" type="qcurve" smooth="yes"/>
      <point x="139" y="472"/>
      <point x="146" y="442"/>
      <point x="151" y="427" type="qcurve" smooth="yes"/>
      <point x="156" y="412"/>
      <point x="167" y="383"/>
      <point x="173" y="370" type="qcurve" smooth="yes"/>
      <point x="178" y="356"/>
      <point x="191" y="329"/>
      <point x="198" y="317" type="qcurve" smooth="yes"/>
      <point x="204" y="304"/>
      <point x="220" y="278"/>
      <point x="229" y="266" type="qcurve" smooth="yes"/>
      <point x="237" y="253"/>
      <point x="255" y="229"/>
      <point x="265" y="218" type="qcurve" smooth="yes"/>
      <point x="274" y="206"/>
      <point x="294" y="184"/>
      <point x="305" y="174" type="qcurve" smooth="yes"/>
      <point x="308" y="170"/>
      <point x="316" y="162"/>
      <point x="320" y="159" type="qcurve"/>
      <point x="216" y="9" type="line"/>
      <point x="329" y="-68" type="line"/>
      <point x="430" y="77" type="line"/>
      <point x="434" y="75"/>
      <point x="442" y="70"/>
      <point x="447" y="68" type="qcurve" smooth="yes"/>
      <point x="459" y="61"/>
      <point x="487" y="47"/>
      <point x="501" y="42" type="qcurve" smooth="yes"/>
      <point x="514" y="36"/>
      <point x="542" y="26"/>
      <point x="557" y="21" type="qcurve" smooth="yes"/>
      <point x="572" y="16"/>
      <point x="602" y="8"/>
      <point x="617" y="6" type="qcurve" smooth="yes"/>
      <point x="631" y="3"/>
      <point x="662" y="-2"/>
      <point x="678" y="-4" type="qcurve" smooth="yes"/>
      <point x="693" y="-6"/>
      <point x="725" y="-7"/>
      <point x="741" y="-7" type="qcurve" smooth="yes"/>
      <point x="755" y="-7"/>
      <point x="786" y="-6"/>
      <point x="802" y="-4" type="qcurve" smooth="yes"/>
      <point x="817" y="-2"/>
      <point x="848" y="3"/>
      <point x="863" y="6" type="qcurve" smooth="yes"/>
      <point x="877" y="8"/>
      <point x="907" y="16"/>
      <point x="922" y="21" type="qcurve" smooth="yes"/>
      <point x="937" y="26"/>
      <point x="966" y="36"/>
      <point x="980" y="42" type="qcurve" smooth="yes"/>
      <point x="993" y="47"/>
      <point x="1020" y="61"/>
      <point x="1033" y="68" type="qcurve" smooth="yes"/>
      <point x="1045" y="74"/>
      <point x="1071" y="90"/>
      <point x="1084" y="99" type="qcurve" smooth="yes"/>
      <point x="1096" y="107"/>
      <point x="1120" y="125"/>
      <point x="1132" y="135" type="qcurve" smooth="yes"/>
      <point x="1143" y="144"/>
      <point x="1165" y="164"/>
      <point x="1176" y="174" type="qcurve" smooth="yes"/>
      <point x="1185" y="184"/>
      <point x="1205" y="206"/>
      <point x="1215" y="218" type="qcurve" smooth="yes"/>
      <point x="1224" y="229"/>
      <point x="1242" y="253"/>
      <point x="1251" y="266" type="qcurve" smooth="yes"/>
      <point x="1259" y="278"/>
      <point x="1275" y="304"/>
      <point x="1282" y="317" type="qcurve" smooth="yes"/>
      <point x="1288" y="329"/>
      <point x="1302" y="356"/>
      <point x="1308" y="370" type="qcurve" smooth="yes"/>
      <point x="1313" y="383"/>
      <point x="1323" y="412"/>
      <point x="1328" y="427" type="qcurve" smooth="yes"/>
      <point x="1333" y="442"/>
      <point x="1341" y="472"/>
      <point x="1344" y="487" type="qcurve" smooth="yes"/>
      <point x="1346" y="501"/>
      <point x="1351" y="532"/>
      <point x="1353" y="548" type="qcurve" smooth="yes"/>
      <point x="1355" y="563"/>
      <point x="1357" y="594"/>
      <point x="1357" y="609" type="qcurve" smooth="yes"/>
      <point x="1357" y="624"/>
      <point x="1355" y="656"/>
    </contour>
    <contour>
      <point x="1071" y="279" type="qcurve" smooth="yes"/>
      <point x="1001" y="209"/>
      <point x="835" y="139"/>
      <point x="741" y="139" type="qcurve" smooth="yes"/>
      <point x="679" y="139"/>
      <point x="564" y="168"/>
      <point x="513" y="198" type="qcurve"/>
      <point x="1043" y="965" type="line"/>
      <point x="1050" y="959"/>
      <point x="1064" y="946"/>
      <point x="1071" y="940" type="qcurve" smooth="yes"/>
      <point x="1140" y="870"/>
      <point x="1211" y="704"/>
      <point x="1211" y="610" type="qcurve" smooth="yes"/>
      <point x="1211" y="514"/>
      <point x="1140" y="348"/>
    </contour>
    <contour>
      <point x="270" y="610" type="qcurve" smooth="yes"/>
      <point x="270" y="704"/>
      <point x="340" y="870"/>
      <point x="410" y="940" type="qcurve" smooth="yes"/>
      <point x="479" y="1009"/>
      <point x="645" y="1080"/>
      <point x="741" y="1080" type="qcurve" smooth="yes"/>
      <point x="791" y="1080"/>
      <point x="885" y="1060"/>
      <point x="929" y="1040" type="qcurve"/>
      <point x="405" y="283" type="line"/>
      <point x="338" y="352"/>
      <point x="270" y="516"/>
    </contour>
  </outline>
</glyph>
<glyph name="thorn" format="1">
  <advance width="1487"/>
  <unicode hex="00FE"/>
  <outline>
    <contour>
      <point x="762" y="120" type="qcurve" smooth="yes"/>
      <point x="927" y="120" name="inserted"/>
      <point x="1211" y="294"/>
      <point x="1211" y="586" type="qcurve" smooth="yes"/>
      <point x="1211" y="686"/>
      <point x="1165" y="853"/>
      <point x="1129" y="921" type="qcurve" smooth="yes" name="inserted"/>
      <point x="1092" y="988"/>
      <point x="869" y="1052"/>
      <point x="781" y="1052" type="qcurve" smooth="yes"/>
      <point x="701" y="1052" name="inserted"/>
      <point x="486" y="981"/>
      <point x="412" y="886" type="qcurve"/>
      <point x="412" y="204" type="line"/>
      <point x="475" y="169" name="inserted"/>
      <point x="684" y="120"/>
    </contour>
    <contour>
      <point x="106" y="1577" type="line"/>
      <point x="324" y="1577" type="line" smooth="yes"/>
      <point x="355.5" y="1577.0" name="inserted"/>
      <point x="387" y="1547"/>
      <point x="387" y="1516" type="qcurve" smooth="yes"/>
      <point x="387" y="1062" type="line"/>
      <point x="488" y="1155" name="inserted"/>
      <point x="730" y="1199"/>
      <point x="838" y="1199" type="qcurve" smooth="yes"/>
      <point x="949" y="1199"/>
      <point x="1210" y="1094"/>
      <point x="1261" y="1007" type="qcurve" smooth="yes" name="inserted"/>
      <point x="1311" y="920"/>
      <point x="1381" y="698"/>
      <point x="1381" y="586" type="qcurve" smooth="yes"/>
      <point x="1381" y="465"/>
      <point x="1302" y="242"/>
      <point x="1248" y="157" type="qcurve" smooth="yes" name="inserted"/>
      <point x="1193" y="72"/>
      <point x="922" y="-29"/>
      <point x="789" y="-29" type="qcurve" smooth="yes"/>
      <point x="717" y="-29"/>
      <point x="489" y="6"/>
      <point x="412" y="45" type="qcurve"/>
      <point x="412" y="-474" type="line"/>
      <point x="250" y="-477" type="line"/>
      <point x="250" y="1454" type="line"/>
      <point x="106" y="1457" type="line"/>
    </contour>
  </outline>
</glyph>
<glyph name="lslash" format="1">
  <advance width="682"/>
  <unicode hex="0142"/>
  <outline>
    <contour>
      <point x="401" y="236" type="line" smooth="yes"/>
      <point x="401" y="180" name="inserted"/>
      <point x="445" y="138"/>
      <point x="489" y="138" type="qcurve"/>
      <point x="592" y="137" type="line"/>
      <point x="592" y="-13" type="line"/>
      <point x="436" y="-14" type="line"/>
      <point x="338" y="-14" name="inserted"/>
      <point x="239" y="102"/>
      <point x="239" y="218" type="qcurve" smooth="yes"/>
      <point x="239" y="686" type="line"/>
      <point x="65" y="616" type="line"/>
      <point x="65" y="764" type="line"/>
      <point x="239" y="834" type="line"/>
      <point x="239" y="1454" type="line"/>
      <point x="94" y="1454" type="line"/>
      <point x="94" y="1577" type="line"/>
      <point x="340" y="1577" type="line" smooth="yes"/>
      <point x="370.5" y="1577.0" name="inserted"/>
      <point x="401.0" y="1545.0"/>
      <point x="401" y="1513" type="qcurve" smooth="yes"/>
      <point x="401" y="897" type="line"/>
      <point x="581" y="971" type="line"/>
      <point x="581" y="823" type="line"/>
      <point x="401" y="750" type="line"/>
    </contour>
  </outline>
</glyph>
<glyph name="Zcaron" format="1">
  <advance width="1231"/>
  <unicode hex="017D"/>
  <outline>
    <contour>
      <point x="1114" y="342" type="line"/>
      <point x="1114" y="63" type="line" smooth="yes"/>
      <point x="1114.0" y="31.5" name="inserted"/>
      <point x="1082.5" y="0.0"/>
      <point x="1051" y="0" type="qcurve" smooth="yes"/>
      <point x="117" y="0" type="line"/>
      <point x="117" y="98" type="line"/>
      <point x="932" y="1382" type="line"/>
      <point x="281" y="1382" type="line"/>
      <point x="264" y="1153" type="line"/>
      <point x="158" y="1153" type="line"/>
      <point x="158" y="1432" type="line" smooth="yes"/>
      <point x="158.0" y="1463.5" name="inserted"/>
      <point x="189.5" y="1495.0"/>
      <point x="221" y="1495" type="qcurve" smooth="yes"/>
      <point x="1114" y="1495" type="line"/>
      <point x="1114" y="1397" type="line"/>
      <point x="299" y="113" type="line"/>
      <point x="991" y="113" type="line"/>
      <point x="1006" y="342" type="line"/>
    </contour>
    <contour>
      <point x="885" y="2003" type="line"/>
      <point x="1006" y="1935" type="line"/>
      <point x="698" y="1642" type="line"/>
      <point x="612" y="1642" type="line"/>
      <point x="362" y="1935" type="line"/>
      <point x="428" y="2003" type="line"/>
      <point x="655" y="1802" type="line"/>
    </contour>
  </outline>
</glyph>
<glyph name="circumflex" format="1">
  <advance width="821"/>
  <unicode hex="02C6"/>
  <outline>
    <contour>
      <point x="705" y="1366" type="line"/>
      <point x="639" y="1298" type="line"/>
      <point x="410" y="1499" type="line"/>
      <point x="182" y="1298" type="line"/>
      <point x="117" y="1366" type="line"/>
      <point x="367" y="1659" type="line"/>
      <point x="453" y="1659" type="line"/>
    </contour>
  </outline>
</glyph>
<glyph name="ring" format="1">
  <advance width="782"/>
  <unicode hex="02DA"/>
  <outline>
    <contour>
      <point x="164" y="1489" type="qcurve" smooth="yes"/>
      <point x="164" y="1587"/>
      <point x="281" y="1706"/>
      <point x="385" y="1706" type="qcurve" smooth="yes"/>
      <point x="492" y="1706"/>
      <point x="621" y="1579"/>
      <point x="621" y="1481" type="qcurve" smooth="yes"/>
      <point x="621" y="1382"/>
      <point x="500" y="1266"/>
      <point x="393" y="1266" type="qcurve" smooth="yes"/>
      <point x="289" y="1266"/>
      <point x="164" y="1391"/>
    </contour>
    <contour>
      <point x="498" y="1483" type="qcurve" smooth="yes"/>
      <point x="498" y="1538"/>
      <point x="436" y="1612"/>
      <point x="387" y="1612" type="qcurve" smooth="yes"/>
      <point x="338" y="1612"/>
      <point x="283" y="1542"/>
      <point x="283" y="1487" type="qcurve" smooth="yes"/>
      <point x="283" y="1434"/>
      <point x="342" y="1358"/>
      <point x="391" y="1358" type="qcurve" smooth="yes"/>
      <point x="442" y="1358"/>
      <point x="498" y="1427"/>
    </contour>
  </outline>
</glyph>
<glyph name="tilde" format="1">
  <advance width="856"/>
  <unicode hex="02DC"/>
  <outline>
    <contour>
      <point x="573" y="1384" type="qcurve" smooth="yes"/>
      <point x="553" y="1384"/>
      <point x="469" y="1407"/>
      <point x="425.0" y="1421.5" type="qcurve" smooth="yes" name="inserted"/>
      <point x="381" y="1436"/>
      <point x="307" y="1458"/>
      <point x="299" y="1458" type="qcurve" smooth="yes"/>
      <point x="263.0" y="1458.0" name="inserted"/>
      <point x="215.0" y="1414.0"/>
      <point x="203" y="1370" type="qcurve"/>
      <point x="106" y="1399" type="line"/>
      <point x="133.0" y="1496.0" name="inserted"/>
      <point x="221.5" y="1593.0"/>
      <point x="283" y="1593" type="qcurve" smooth="yes"/>
      <point x="301" y="1593"/>
      <point x="387" y="1571"/>
      <point x="432.0" y="1556.5" type="qcurve" smooth="yes" name="inserted"/>
      <point x="477" y="1542"/>
      <point x="551" y="1520"/>
      <point x="559" y="1520" type="qcurve" smooth="yes"/>
      <point x="592.0" y="1520.0" name="inserted"/>
      <point x="639.0" y="1565.0"/>
      <point x="653" y="1610" type="qcurve"/>
      <point x="750" y="1579" type="line"/>
      <point x="725.0" y="1481.5" name="inserted"/>
      <point x="636.5" y="1384.0"/>
    </contour>
  </outline>
</glyph>
